<svg xmlns="http://www.w3.org/2000/svg" xmlns:xlink="http://www.w3.org/1999/xlink" version="1.1" id="Ebene_1" x="0px" y="0px" width="100px" height="100px" viewBox="0 0 100 100" enable-background="new 0 0 100 100" xml:space="preserve">
<rect x="49.188" y="82.922" width="4.748" height="11.869"/>
<path d="M49.188,76.986c-0.001-7.293,2.839-14.149,7.994-19.307l9.571-9.568c4.259-4.26,6.604-9.924,6.604-15.949  c0-12.506-10.117-22.624-22.553-22.624c-12.435,0-22.552,10.118-22.552,22.554h-4.748c0-15.055,12.247-27.302,27.3-27.302  c15.054,0,27.302,12.248,27.302,27.302c0,7.361-2.84,14.218-7.996,19.375l-9.57,9.569c-4.26,4.26-6.605,9.923-6.604,15.948H49.188z"/>
</svg>